<?xml version="1.0" encoding="UTF-8" standalone="no"?>
<svg
   xmlns:dc="http://purl.org/dc/elements/1.1/"
   xmlns:cc="http://creativecommons.org/ns#"
   xmlns:rdf="http://www.w3.org/1999/02/22-rdf-syntax-ns#"
   xmlns:svg="http://www.w3.org/2000/svg"
   xmlns="http://www.w3.org/2000/svg"
   xmlns:sodipodi="http://sodipodi.sourceforge.net/DTD/sodipodi-0.dtd"
   xmlns:inkscape="http://www.inkscape.org/namespaces/inkscape"
   viewBox="0 0 793.7007874015749 1122.5196850393702"
   width="793.7007874015749"
   height="1122.5196850393702"
   version="1.1"
   id="svg1782"
   sodipodi:docname="2020.svg"
   inkscape:version="1.0beta2 (2b71d25, 2019-12-03)">
  <metadata
     id="metadata1786">
    <rdf:RDF>
      <cc:Work
         rdf:about="">
        <dc:format>image/svg+xml</dc:format>
        <dc:type
           rdf:resource="http://purl.org/dc/dcmitype/StillImage" />
        <dc:title />
      </cc:Work>
    </rdf:RDF>
  </metadata>
  <sodipodi:namedview
     pagecolor="#ffffff"
     bordercolor="#666666"
     inkscape:document-rotation="0"
     borderopacity="1"
     objecttolerance="10"
     gridtolerance="10"
     guidetolerance="10"
     inkscape:pageopacity="0"
     inkscape:pageshadow="2"
     inkscape:window-width="1440"
     inkscape:window-height="855"
     id="namedview1784"
     showgrid="false"
     inkscape:zoom="0.24231202"
     inkscape:cx="-319.16856"
     inkscape:cy="1337.119"
     inkscape:window-x="0"
     inkscape:window-y="23"
     inkscape:window-maximized="1"
     inkscape:current-layer="g1778" />
  <defs
     id="defs1768">
    <marker
       id="DistanceX"
       orient="auto"
       refX="0.0"
       refY="0.0"
       style="overflow:visible">
      <path
         d="M 3,-3 L -3,3 M 0,-5 L  0,5"
         style="stroke:#000000; stroke-width:0.5"
         id="path1756" />
    </marker>
    <pattern
       id="Hatch"
       patternUnits="userSpaceOnUse"
       width="8"
       height="8"
       x="0"
       y="0">
      <path
         d="M8 4 l-4,4"
         stroke="#000000"
         stroke-width="0.25"
         linecap="square"
         id="path1759" />
      <path
         d="M6 2 l-4,4"
         stroke="#000000"
         stroke-width="0.25"
         linecap="square"
         id="path1761" />
      <path
         d="M4 0 l-4,4"
         stroke="#000000"
         stroke-width="0.25"
         linecap="square"
         id="path1763" />
    </pattern>
    <symbol
       id="*MODEL_SPACE" />
    <symbol
       id="*PAPER_SPACE" />
  </defs>
  <g
     inkscape:groupmode="layer"
     inkscape:label="0"
     id="g1778">
    <path
       inkscape:connector-curvature="0"
       id="path1774"
       style="fill:none;fill-opacity:1;stroke:#000000;stroke-width:0.378005;stroke-miterlimit:4;stroke-dasharray:none"
       d="M 567.11235,0.18900303 A 566.89881,566.90251 0 0 0 0.18900517,567.06608 V 2593.5453 A 191.98976,191.991 0 0 0 192.21067,2785.5678 H 375.09058 A 191.98976,191.991 0 0 0 567.11235,2593.5453 V 1705.8164 A 191.98976,191.991 0 0 1 759.084,1513.7917 h 274.2952 a 191.98976,191.991 0 0 1 135.7738,56.2502 l 1172.8102,1172.8157 a 191.98976,191.991 0 0 1 56.1978,135.7748 v 1801.9371 a 191.98976,191.991 0 0 1 -56.1978,135.7267 L 1169.253,5989.0117 a 191.98976,191.991 0 0 1 -135.7741,56.2508 H 759.084 A 191.98976,191.991 0 0 1 567.11235,5853.2393 V 4965.5082 A 191.98976,191.991 0 0 0 375.09058,4773.4855 H 192.21067 A 191.98976,191.991 0 0 0 0.18900517,4965.5082 V 6991.9877 A 566.89881,566.90251 0 0 0 567.11235,7558.8661 H 2593.5793 A 191.98976,191.991 0 0 0 2785.551,7366.8918 V 7183.959 a 191.98976,191.991 0 0 0 -191.9717,-191.9713 h -887.7751 a 191.98976,191.991 0 0 1 -191.9716,-192.022 v -274.2483 a 191.98976,191.991 0 0 1 56.2478,-135.7751 L 2742.8907,5217.1259 a 191.98976,191.991 0 0 1 135.7239,-56.2497 h 1801.9258 a 191.98976,191.991 0 0 1 135.7737,56.2497 l 1172.7104,1172.7166 a 191.98976,191.991 0 0 1 56.1977,135.7262 v 274.397 a 191.98976,191.991 0 0 1 -191.9715,192.022 h -887.7753 a 191.98976,191.991 0 0 0 -191.9711,191.9713 v 182.9328 a 191.98976,191.991 0 0 0 191.9711,191.9743 h 2026.4675 a 566.89881,566.90251 0 0 0 566.9233,-566.8784 V 4965.5082 a 191.98976,191.991 0 0 0 -192.0218,-192.0227 h -182.8796 a 191.98976,191.991 0 0 0 -192.0219,192.0227 v 887.7311 a 191.98976,191.991 0 0 1 -191.9719,192.0232 h -274.2949 a 191.98976,191.991 0 0 1 -135.774,-56.2508 L 5217.0916,4816.196 a 191.98976,191.991 0 0 1 -56.1977,-135.7747 V 2878.4838 a 191.98976,191.991 0 0 1 56.1977,-135.7262 L 6389.802,1570.0419 a 191.98976,191.991 0 0 1 135.7743,-56.2502 h 274.3947 a 191.98976,191.991 0 0 1 191.9719,192.0247 v 887.7289 a 191.98976,191.991 0 0 0 192.0219,192.0225 h 182.8796 a 191.98976,191.991 0 0 0 192.0218,-192.0225 V 567.06608 A 566.89881,566.90251 0 0 0 6991.9429,0.18900303 H 4965.4754 A 191.98976,191.991 0 0 0 4773.5043,192.16182 v 182.9312 a 191.98976,191.991 0 0 0 191.9711,191.97306 h 887.7753 a 191.98976,191.991 0 0 1 191.9715,192.0221 v 274.24822 a 191.98976,191.991 0 0 1 -56.1977,135.7748 l -1172.86,1172.8161 a 191.98976,191.991 0 0 1 -135.724,56.2499 H 2878.5146 a 191.98976,191.991 0 0 1 -135.7737,-56.2499 L 1570.0804,1169.2595 a 191.98976,191.991 0 0 1 -56.2478,-135.7749 V 759.08818 a 191.98976,191.991 0 0 1 191.9716,-192.0221 h 887.7751 A 191.98976,191.991 0 0 0 2785.551,375.09302 V 192.16182 A 191.98976,191.991 0 0 0 2593.5793,0.18900303 Z M 3188.027,2821.485 a 297.43294,297.43486 0 0 1 287.7327,226.4428 792.14673,792.15183 0 0 1 607.5357,0 297.43294,297.43486 0 0 1 499.1359,-139.3733 l 68.0369,68.038 a 297.43294,297.43486 0 0 1 -139.3203,499.1896 792.14673,792.15183 0 0 1 0,607.4892 297.43294,297.43486 0 0 1 139.3203,499.1891 l -68.0369,68.0384 a 297.43294,297.43486 0 0 1 -499.1359,-139.3724 792.14673,792.15183 0 0 1 -607.5357,0 297.43294,297.43486 0 0 1 -499.1361,139.3724 l -68.0369,-68.0384 a 297.43294,297.43486 0 0 1 139.3706,-499.1891 792.14673,792.15183 0 0 1 0,-607.4892 297.43294,297.43486 0 0 1 -139.3706,-499.1896 l 68.0369,-68.038 a 297.43294,297.43486 0 0 1 211.4034,-87.0695 z" />
  </g>
  <desc
     id="desc1780">2020.dxf - scale = 1.000000, origin = (0.000000, 0.000000), method = manual</desc>
</svg>
